<svg xmlns="http://www.w3.org/2000/svg" xmlns:xlink="http://www.w3.org/1999/xlink" width="60" height="60" viewBox="0 0 60 60">
    <defs>
        <path id="a" d="M.005.035h33.962v33.963H.005z"/>
    </defs>
    <g fill="none" fill-rule="evenodd" transform="translate(-360 -798)">
        <path fill="#FAE0CE" d="M0 0h1080v1655H0z"/>
        <rect width="1040" height="1507" x="20" y="119" fill="#FFF" rx="100"/>
        <path fill="#E56D6D" d="M387.08 823.4l-15.714-13.095a3 3 0 0 1 1.92-5.305h31.428a3 3 0 0 1 1.92 5.305L390.921 823.4a3 3 0 0 1-3.842 0z"/>
        <path fill="#FFF" d="M382.5 805a1.5 1.5 0 0 1 1.5 1.5v4a1.5 1.5 0 0 1-3 0v-4a1.5 1.5 0 0 1 1.5-1.5zM389.5 805a1.5 1.5 0 0 1 1.5 1.5v4a1.5 1.5 0 0 1-3 0v-4a1.5 1.5 0 0 1 1.5-1.5zM396.5 805a1.5 1.5 0 0 1 1.5 1.5v4a1.5 1.5 0 0 1-3 0v-4a1.5 1.5 0 0 1 1.5-1.5z"/>
        <g>
            <g transform="translate(372 816)">
                <mask id="b" fill="#fff">
                    <use xlink:href="#a"/>
                </mask>
                <path fill="#E0BD4B" d="M31.444 17.829a2.763 2.763 0 0 0-.277 2.296l.573 1.782a1.432 1.432 0 0 1-.636 1.678l-1.587.942a2.76 2.76 0 0 0-1.314 1.914l-.313 1.832a1.43 1.43 0 0 1-1.347 1.196l-1.818.09a2.76 2.76 0 0 0-2.065 1.09l-1.108 1.457a1.448 1.448 0 0 1-1.755.433l-1.643-.767a2.76 2.76 0 0 0-2.34 0l-1.644.767a1.447 1.447 0 0 1-1.755-.433l-1.108-1.458a2.76 2.76 0 0 0-2.065-1.089l-1.818-.09a1.431 1.431 0 0 1-1.348-1.196l-.312-1.832a2.76 2.76 0 0 0-1.314-1.914l-1.587-.942a1.432 1.432 0 0 1-.636-1.678l.573-1.782a2.764 2.764 0 0 0-.278-2.296l-.979-1.591a1.433 1.433 0 0 1 .216-1.78l1.324-1.305a2.761 2.761 0 0 0 .818-2.166L3.77 9.123a1.431 1.431 0 0 1 1.02-1.48l1.753-.529c.78-.235 1.415-.8 1.74-1.547l.734-1.694a1.45 1.45 0 0 1 1.597-.84l1.78.35a2.76 2.76 0 0 0 2.27-.563l1.416-1.144a1.447 1.447 0 0 1 1.809 0l1.416 1.144c.638.515 1.465.72 2.27.562l1.779-.35a1.448 1.448 0 0 1 1.598.84l.734 1.694a2.762 2.762 0 0 0 1.74 1.548l1.753.529a1.432 1.432 0 0 1 1.02 1.48l-.132 1.863c-.058.809.24 1.599.817 2.167l1.325 1.305c.48.473.569 1.205.215 1.78l-.979 1.59z" mask="url(#b)"/>
            </g>
            <path fill="#C09817" d="M381.022 824.097a.663.663 0 0 0-.938-.004l-.01.01a.663.663 0 1 0 .934.942l.01-.01a.664.664 0 0 0 .004-.938zM401.373 830.7a12.536 12.536 0 0 0-3.478-6.595 12.589 12.589 0 0 0-15.344-1.93.663.663 0 0 0 .678 1.14 11.264 11.264 0 0 1 13.728 1.728 11.235 11.235 0 0 1 2.412 12.371.664.664 0 0 0 1.222.517 12.594 12.594 0 0 0 .782-7.23zM397.897 840.992a.664.664 0 0 0-.938-.005l-.01.01a.664.664 0 0 0 .934.942l.01-.01a.663.663 0 0 0 .004-.937zM395.647 842.947a.663.663 0 0 0-.909-.23 11.236 11.236 0 0 1-5.749 1.58 11.271 11.271 0 0 1-7.979-3.308 11.234 11.234 0 0 1-2.412-12.371.664.664 0 0 0-1.222-.517 12.594 12.594 0 0 0-.782 7.23 12.538 12.538 0 0 0 3.478 6.596 12.596 12.596 0 0 0 8.917 3.697c2.206 0 4.427-.579 6.427-1.767a.664.664 0 0 0 .231-.91z"/>
        </g>
    </g>
</svg>
